<?xml version="1.0" encoding="UTF-8"?>
<svg version="1.1" xmlns="http://www.w3.org/2000/svg" width="500" height="500">
<path d="M0 0 C1.33789891 -0.00330318 2.67579684 -0.0070297 4.01369351 -0.01114148 C7.68004162 -0.02111823 11.34637335 -0.02487128 15.0127331 -0.02753079 C18.97141688 -0.03144681 22.93008786 -0.04102429 26.88876343 -0.04974365 C36.44478288 -0.06947279 46.00080334 -0.07957033 55.55683807 -0.08847144 C60.0637939 -0.09286067 64.57074856 -0.09822588 69.07770348 -0.10346031 C84.07206255 -0.12046999 99.06642092 -0.13496193 114.06078815 -0.14220905 C117.94874383 -0.14411876 121.8366995 -0.14603912 125.72465515 -0.147995 C126.69091547 -0.14847874 127.65717579 -0.14896248 128.65271672 -0.14946087 C144.28914226 -0.1577529 159.9254911 -0.183077 175.56188319 -0.21557567 C191.63774965 -0.24871362 207.71357723 -0.26666394 223.789478 -0.26985329 C232.80638939 -0.2720123 241.82318895 -0.28067111 250.84006691 -0.30631447 C258.52276229 -0.3281138 266.20531868 -0.33602684 273.88804147 -0.32634769 C277.80121867 -0.32182938 281.71410967 -0.3235433 285.62724686 -0.34310913 C319.59268681 -0.50347798 347.33158777 5.9356552 372.40312195 30.20967102 C388.3598093 46.17096813 399.99563162 70.11200448 400.03734303 92.92644119 C400.04180087 94.06287386 400.04625871 95.19930653 400.05085164 96.37017655 C400.0505751 98.22821746 400.0505751 98.22821746 400.05029297 100.12379456 C400.0535951 101.46083042 400.0573214 102.79786529 400.06143445 104.1348989 C400.07142343 107.80350635 400.07516625 111.47209744 400.07782376 115.14071655 C400.08173619 119.10009959 400.09131404 123.05946979 400.10003662 127.0188446 C400.11977732 136.57973116 400.12986543 146.14061873 400.13876441 155.70152056 C400.14315233 160.20997284 400.14851793 164.71842395 400.15375328 169.22687531 C400.17076521 184.225483 400.18525681 199.22408998 400.19250202 214.22270584 C400.19441176 218.11289216 400.19633211 222.00307847 400.19828796 225.89326477 C400.1987717 226.86009059 400.19925544 227.82691641 400.19975384 228.82303998 C400.20804451 244.46599562 400.23336527 260.10887456 400.26586864 275.75179675 C400.29900688 291.83215161 400.31695699 307.91246758 400.32014626 323.99285674 C400.3223054 333.01313646 400.33096597 342.03330441 400.35660744 351.05355072 C400.37840728 358.7399301 400.38631962 366.42617056 400.37664066 374.11257735 C400.3721223 378.0277728 400.37383652 381.94268221 400.3934021 385.85783768 C400.5522061 419.5097033 394.36406087 447.51455953 370.09062195 472.27217102 C345.5035316 496.64268524 315.92108401 500.62457905 282.78948605 500.53934503 C278.84327945 500.53249469 274.89711119 500.54306505 270.95091248 500.55128479 C263.24104975 500.56456075 255.53127509 500.56177204 247.82140904 500.55304687 C241.55093595 500.5462469 235.28048739 500.54536355 229.01001167 500.54861832 C227.66677109 500.54930787 227.66677109 500.54930787 226.29639434 500.55001134 C224.47671984 500.5509706 222.65704536 500.55194325 220.83737088 500.55292912 C203.81126968 500.5614649 186.78521709 500.55167714 169.75912387 500.53552802 C155.17632092 500.52212419 140.59358963 500.52445699 126.01078796 500.5382843 C109.04032481 500.55436824 92.06990415 500.56064351 75.09943444 500.55144751 C73.28709512 500.55049195 71.47475579 500.54954884 69.66241646 500.54861832 C68.77091111 500.54815549 67.87940575 500.54769266 66.96088509 500.54721581 C60.70348079 500.54463453 54.44610363 500.54897821 48.18870354 500.55605698 C40.55518448 500.56450342 32.92175788 500.56212602 25.28824931 500.54621474 C21.39974148 500.53837446 17.51138734 500.53516724 13.62288094 500.5451622 C10.05316188 500.55419846 6.48373684 500.54903204 2.91404391 500.53322954 C1.0330322 500.52836874 -0.84800044 500.53799761 -2.72898966 500.54840124 C-25.97459832 500.3905541 -47.34027562 492.06271706 -65.09687805 477.14717102 C-65.84711243 476.53099915 -66.5973468 475.91482727 -67.37031555 475.27998352 C-85.16569784 460.15694533 -97.90063618 436.56768828 -100.09687805 413.14717102 C-100.24675512 408.78753276 -100.24038291 404.42995551 -100.23731995 400.06806946 C-100.23990644 398.73215748 -100.24292038 397.39624626 -100.24632335 396.06033611 C-100.25436348 392.39959536 -100.25618125 388.73887425 -100.25692081 385.07812572 C-100.25877662 381.12563604 -100.26632667 377.17315643 -100.27305603 373.22067261 C-100.28661932 364.58192712 -100.29266114 355.94318628 -100.29706669 347.30443192 C-100.29983288 341.90560559 -100.30407096 336.50678105 -100.30857086 331.10795593 C-100.32076163 316.14704501 -100.33106086 301.18613551 -100.33444595 286.22521973 C-100.33466552 285.26826535 -100.33488509 284.31131097 -100.33511131 283.32535797 C-100.33532958 282.36616847 -100.33554786 281.40697896 -100.33577275 280.41872311 C-100.33621621 278.4751784 -100.33666278 276.53163369 -100.33711243 274.58808899 C-100.33733386 273.62403236 -100.33755529 272.65997572 -100.33778343 271.66670525 C-100.34172859 256.0573675 -100.35917489 240.4480765 -100.38247195 224.8387568 C-100.40622219 208.79567485 -100.4186495 192.75261633 -100.41981387 176.70951653 C-100.42072864 167.70893175 -100.42643089 158.7084079 -100.44463348 149.70783997 C-100.46008421 142.04117665 -100.46512579 134.37459309 -100.45689538 126.70791715 C-100.45300621 122.80123607 -100.45383289 118.89471532 -100.46795273 114.98805428 C-100.48079677 111.40133605 -100.4794035 107.81489692 -100.46736202 104.2281785 C-100.46451477 102.33778042 -100.47626075 100.44737702 -100.48878407 98.55701828 C-100.35248133 74.61241665 -91.37464443 52.43477168 -76.09687805 34.14717102 C-75.35437805 33.15717102 -74.61187805 32.16717102 -73.84687805 31.14717102 C-55.70755619 9.74751353 -27.15064764 -0.00405052 0 0 Z " fill="#2084E4" transform="translate(100.09687805175781,-0.1471710205078125)"/>
<path d="M0 0 C0 0.66 0 1.32 0 2 C1.98 2.495 1.98 2.495 4 3 C4 3.66 4 4.32 4 5 C4.71542969 5.12246094 5.43085938 5.24492187 6.16796875 5.37109375 C9.05112713 6.01135375 11.58592473 6.93551556 14.3125 8.0625 C15.19550781 8.42472656 16.07851563 8.78695312 16.98828125 9.16015625 C17.65214844 9.43730469 18.31601562 9.71445313 19 10 C19 10.66 19 11.32 19 12 C20.98 12.495 20.98 12.495 23 13 C23 13.66 23 14.32 23 15 C23.66 15.061875 24.32 15.12375 25 15.1875 C29.1216675 16.30378495 32.65750502 18.33761566 36 21 C36 21.66 36 22.32 36 23 C37.1446875 23.0928125 37.1446875 23.0928125 38.3125 23.1875 C43.56521514 24.34487791 48.1721503 26.67197995 53 29 C53 29.66 53 30.32 53 31 C53.680625 31.103125 54.36125 31.20625 55.0625 31.3125 C61.17834499 32.74386798 66.42303795 35.72061312 71.84375 38.79296875 C74.51732687 40.28959059 77.24592028 41.65826885 80 43 C80 43.66 80 44.32 80 45 C80.886875 45.0825 81.77375 45.165 82.6875 45.25 C86 46 86 46 88.3125 47.875 C91.89610079 50.70854481 95.65328615 51.74996465 100 53 C100 53.66 100 54.32 100 55 C100.66 55 101.32 55 102 55 C102 55.66 102 56.32 102 57 C104.97 57.66 107.94 58.32 111 59 C111 59.66 111 60.32 111 61 C112.175625 61.185625 112.175625 61.185625 113.375 61.375 C116 62 116 62 118 64 C119.98356483 64.71408334 121.98315437 65.38617742 124 66 C124 66.66 124 67.32 124 68 C124.53625 68.103125 125.0725 68.20625 125.625 68.3125 C128.62502044 69.18092697 131.2379535 70.55620296 134 72 C134 72.66 134 73.32 134 74 C134.70125 74.103125 135.4025 74.20625 136.125 74.3125 C139.39137647 75.09359003 142.0471852 76.42058743 145 78 C145 78.66 145 79.32 145 80 C145.72574219 80.1134375 146.45148438 80.226875 147.19921875 80.34375 C150.12729569 81.0298266 152.20215629 82.0201201 154.8125 83.5 C155.77414062 84.03882813 156.73578125 84.57765625 157.7265625 85.1328125 C159.42167521 86.0997145 161.11676369 87.06665916 162.81152344 88.03417969 C164.76882618 89.15019446 166.72758443 90.26358011 168.6875 91.375 C169.35434814 91.75325928 170.02119629 92.13151855 170.70825195 92.52124023 C178.0018506 96.62199258 185.48219219 100.33106986 193 104 C193 104.66 193 105.32 193 106 C193.99 106.33 194.98 106.66 196 107 C194.515 107.495 194.515 107.495 193 108 C193 108.66 193 109.32 193 110 C190.36 110.66 187.72 111.32 185 112 C185 112.66 185 113.32 185 114 C183.73308493 114.67408308 182.46129251 115.33900497 181.1875 116 C180.47980469 116.37125 179.77210938 116.7425 179.04296875 117.125 C177 118 177 118 174 118 C174 118.66 174 119.32 174 120 C172.515 120.495 172.515 120.495 171 121 C170.67 121.66 170.34 122.32 170 123 C167.03 124.32 164.06 125.64 161 127 C160.67 139.87 160.34 152.74 160 166 C161.32 166.66 162.64 167.32 164 168 C164.66 168.33 165.32 168.66 166 169 C167.33510116 173.38138832 167.55606734 177.77159879 165.6875 182 C164.1948757 184.2259345 163.25494735 184.90760882 160.71484375 185.828125 C156.49894419 186.51487787 153.03833202 186.61855438 149.4375 184.125 C146.38206775 180.20777916 145.57581195 176.94002338 146 172 C147.34930907 168.12776409 148.03047119 167.98476441 152 166 C152.33 154.78 152.66 143.56 153 132 C149.04 133.98 149.04 133.98 145 136 C143.02 136.99 143.02 136.99 141 138 C140.67 138.66 140.34 139.32 140 140 C137.07551805 141.56989062 134.08126625 142.95437967 131.078125 144.3671875 C128.04895466 145.97403167 125.65145521 147.84456532 123 150 C122.01 150.33 121.02 150.66 120 151 C118.78448238 154.64655287 118.8074535 158.04414275 118.75390625 161.84375 C118.7209798 163.4153704 118.68776796 164.98698485 118.65429688 166.55859375 C118.60681636 169.03397693 118.56235235 171.5093339 118.52319336 173.98486328 C118.48351449 176.37557454 118.43197521 178.76580378 118.37890625 181.15625 C118.3704921 181.89693726 118.36207794 182.63762451 118.35340881 183.40075684 C118.26372758 187.12346431 118.11713572 188.82429641 116 192 C110.70998466 194.99076031 105.10831482 197.50473123 99 198 C99 198.66 99 199.32 99 200 C84.40318907 203.44419134 84.40318907 203.44419134 77 203 C77 203.66 77 204.32 77 205 C71.61395011 206.46084078 66.42303445 207.42050092 60.8515625 207.8515625 C60.06644791 207.91554733 59.28133331 207.97953217 58.47242737 208.04545593 C55.85737764 208.25099123 53.24161968 208.44055918 50.625 208.625 C49.71037994 208.69036957 48.79575989 208.75573914 47.85342407 208.8230896 C-47.21023566 215.39488217 -47.21023566 215.39488217 -64 207 C-67.72091276 206.55897548 -71.44123967 206.18387697 -75.171875 205.83789062 C-79.74179691 205.37563701 -83.63820152 204.4975112 -88 203 C-90.36963426 202.68566076 -92.74568389 202.41734901 -95.125 202.1875 C-102.36983571 201.35445138 -108.48783347 199.24139417 -115 196 C-115.72316406 195.64550781 -116.44632812 195.29101562 -117.19140625 194.92578125 C-120.6823413 193.0819262 -123.08262907 191.4570081 -125 188 C-125.18813433 185.22691105 -125.21247841 182.71011843 -125.07421875 179.953125 C-125.03455742 178.79632233 -125.03455742 178.79632233 -124.99409485 177.6161499 C-124.90652497 175.15996169 -124.79731258 172.70528442 -124.6875 170.25 C-124.62422086 168.5820849 -124.56235548 166.91411551 -124.50195312 165.24609375 C-124.35101594 161.16325206 -124.18066749 157.0816298 -124 153 C-125.65 152.67 -127.3 152.34 -129 152 C-129 151.34 -129 150.68 -129 150 C-131.31 149.34 -133.62 148.68 -136 148 C-136 147.34 -136 146.68 -136 146 C-136.99 146 -137.98 146 -139 146 C-139 145.34 -139 144.68 -139 144 C-139.94875 143.7525 -140.8975 143.505 -141.875 143.25 C-145 142 -145 142 -146 139.9375 C-146.495 138.9784375 -146.495 138.9784375 -147 138 C-148.98821313 137.60235737 -150.99124558 137.27571139 -153 137 C-155.5625 135.625 -155.5625 135.625 -158 134 C-159.36125 133.2265625 -159.36125 133.2265625 -160.75 132.4375 C-163 131 -163 131 -164 129 C-165.11375 128.690625 -166.2275 128.38125 -167.375 128.0625 C-170.87017761 127.03805139 -171.7847005 126.63726131 -174 124 C-176.57245145 121.61810051 -178.70247307 120.74462135 -182.0625 120 C-185.37437363 119.26335164 -186.69124266 118.50951885 -189 116 C-191.29074433 114.85981052 -193.61738122 113.9440565 -196 113 C-196 112.34 -196 111.68 -196 111 C-196.78375 110.938125 -197.5675 110.87625 -198.375 110.8125 C-199.24125 110.544375 -200.1075 110.27625 -201 110 C-202.1640625 107.44921875 -202.1640625 107.44921875 -203 105 C-197.42240362 101.83184323 -191.97812198 98.83511492 -185.91796875 96.7109375 C-178.9872261 94.14330816 -178.9872261 94.14330816 -174 89 C-171.37643538 88.01484622 -168.75475877 87.57761071 -166 87 C-166 86.34 -166 85.68 -166 85 C-165.45730469 84.80664062 -164.91460937 84.61328125 -164.35546875 84.4140625 C-163.64003906 84.15367187 -162.92460937 83.89328125 -162.1875 83.625 C-161.47980469 83.36976563 -160.77210938 83.11453125 -160.04296875 82.8515625 C-157.75226641 81.9734231 -157.75226641 81.9734231 -155 80 C-154.01 80 -153.02 80 -152 80 C-152 79.34 -152 78.68 -152 78 C-151.34 78 -150.68 78 -150 78 C-150 77.34 -150 76.68 -150 76 C-148.52466797 75.38705078 -148.52466797 75.38705078 -147.01953125 74.76171875 C-142.06889966 72.64108809 -137.30758132 70.16152293 -132.52148438 67.69726562 C-127.21202458 65 -127.21202458 65 -125 65 C-125 64.34 -125 63.68 -125 63 C-123.58521865 62.35004703 -122.16808513 61.70521278 -120.75 61.0625 C-119.96109375 60.70285156 -119.1721875 60.34320313 -118.359375 59.97265625 C-116.24176302 59.09966721 -114.23330638 58.48661492 -112 58 C-112 57.34 -112 56.68 -112 56 C-110.21046815 55.16209211 -108.41830305 54.32980604 -106.625 53.5 C-105.12839844 52.80390625 -105.12839844 52.80390625 -103.6015625 52.09375 C-101 51 -101 51 -99 51 C-99 50.34 -99 49.68 -99 49 C-91.52065443 45.12676747 -84.12609552 42.20081754 -76 40 C-76 39.34 -76 38.68 -76 38 C-74.21046815 37.16209211 -72.41830305 36.32980604 -70.625 35.5 C-69.12839844 34.80390625 -69.12839844 34.80390625 -67.6015625 34.09375 C-65 33 -65 33 -63 33 C-63 32.34 -63 31.68 -63 31 C-62.27296875 30.64808594 -61.5459375 30.29617187 -60.796875 29.93359375 C-54.14609745 26.66789144 -47.73459213 23.16191806 -41.3984375 19.3203125 C-39 18 -39 18 -37 18 C-37 17.34 -37 16.68 -37 16 C-35.73308493 15.32591692 -34.46129251 14.66099503 -33.1875 14 C-32.47980469 13.62875 -31.77210938 13.2575 -31.04296875 12.875 C-29 12 -29 12 -26 12 C-26 11.34 -26 10.68 -26 10 C-25.21625 9.608125 -24.4325 9.21625 -23.625 8.8125 C-23.08488281 8.54179687 -22.54476562 8.27109375 -21.98828125 7.9921875 C-20.48768305 7.24336246 -18.98465202 6.49940983 -17.48046875 5.7578125 C-16.60003906 5.32210937 -15.71960938 4.88640625 -14.8125 4.4375 C-13.55373047 3.81681641 -13.55373047 3.81681641 -12.26953125 3.18359375 C-7.54769169 0.72108534 -5.48195145 -0.20686609 0 0 Z " fill="#FBFDFE" transform="translate(254,134)"/>
<path d="M0 0 C2.19166608 -0.00135297 4.38333187 -0.00329871 6.57499695 -0.00579834 C11.14776493 -0.00872676 15.72045416 -0.00453076 20.29321289 0.00488281 C26.06403379 0.01620271 31.83466874 0.00956592 37.60548306 -0.00200081 C117.66798318 -0.13821227 117.66798318 -0.13821227 132.94921875 9.265625 C133.93921875 9.760625 134.92921875 10.255625 135.94921875 10.765625 C136.93921875 11.508125 136.93921875 11.508125 137.94921875 12.265625 C137.94921875 13.585625 137.94921875 14.905625 137.94921875 16.265625 C126.22725958 21.60914873 114.76960307 24.1259741 102.07421875 25.890625 C101.22110107 26.0138916 100.3679834 26.1371582 99.48901367 26.26416016 C77.44530346 29.12574602 54.92228441 28.45355701 32.73730469 28.45092773 C29.2261843 28.45084672 25.7151951 28.45776574 22.20410156 28.47143555 C-62.10178489 28.79430766 -62.10178489 28.79430766 -77.05078125 16.265625 C-76.80078125 13.890625 -76.80078125 13.890625 -76.05078125 11.265625 C-73.67333685 9.43682161 -71.78515829 9.22986806 -68.80078125 8.828125 C-65.02734791 8.40880749 -65.02734791 8.40880749 -61.61328125 6.890625 C-42.69818363 -0.55197579 -19.94218885 -0.0441819 0 0 Z " fill="#2486E4" transform="translate(220.05078125,305.734375)"/>
<path d="M0 0 C1.30558365 -0.00570007 2.6111673 -0.01140015 3.95631409 -0.01727295 C6.70517351 -0.02768221 9.4540046 -0.03358923 12.20288086 -0.03710938 C14.97091996 -0.04147524 17.73864407 -0.05531382 20.5065918 -0.078125 C39.67294462 -0.23279995 58.26730815 0.44180695 77.00958252 4.76727295 C79.53506562 5.33706458 82.07588751 5.77571379 84.62890625 6.203125 C88.55869548 6.89726023 92.16182556 7.91463158 95.94140625 9.203125 C97.05515625 9.30625 98.16890625 9.409375 99.31640625 9.515625 C103.29368348 10.2699362 105.46661668 11.58576679 108.765625 13.80859375 C111.12813116 15.32280326 113.54154666 16.54294187 116.06640625 17.765625 C119.92683317 19.66361942 123.43169986 21.69619186 126.94140625 24.203125 C127.85664063 24.76773438 128.771875 25.33234375 129.71484375 25.9140625 C137.48569649 30.96811325 137.48569649 30.96811325 138.87109375 34.72265625 C139.1024362 36.94845102 139.16277616 38.97912964 138.94140625 41.203125 C135.97965502 40.59034888 134.56081842 39.94939978 131.94140625 38.203125 C131.94140625 37.543125 131.94140625 36.883125 131.94140625 36.203125 C130.73484375 35.8628125 130.73484375 35.8628125 129.50390625 35.515625 C125.02854886 33.86680912 121.05419307 31.59768088 116.94140625 29.203125 C116.94140625 28.543125 116.94140625 27.883125 116.94140625 27.203125 C115.76578125 27.1 114.59015625 26.996875 113.37890625 26.890625 C109.16982518 26.36448987 105.78891473 25.02194719 101.94140625 23.203125 C93.59544927 19.26635284 84.94994507 18.15244969 75.8984375 16.765625 C72.94140625 16.203125 72.94140625 16.203125 69.69921875 15.1796875 C65.08055242 13.97941039 60.75892271 13.73260844 56.00390625 13.578125 C54.97410645 13.54090332 53.94430664 13.50368164 52.88330078 13.46533203 C40.698058 13.09566928 28.50622294 13.09594248 16.31640625 13.078125 C15.27606232 13.07544617 14.23571838 13.07276733 13.16384888 13.07000732 C2.41844736 13.04906999 -8.25530567 13.10189368 -18.97045898 13.98266602 C-23.66724362 14.31796497 -28.35297461 14.29117193 -33.05859375 14.203125 C-33.05859375 14.863125 -33.05859375 15.523125 -33.05859375 16.203125 C-33.96480469 16.38488281 -34.87101562 16.56664062 -35.8046875 16.75390625 C-41.90150403 18.0119795 -47.85945581 19.30067234 -53.7265625 21.390625 C-56.60484293 22.39344297 -59.51488785 23.26261242 -62.43359375 24.140625 C-77.74664927 28.65180457 -77.74664927 28.65180457 -91.05859375 37.203125 C-91.36796875 37.904375 -91.67734375 38.605625 -91.99609375 39.328125 C-93.05859375 41.203125 -93.05859375 41.203125 -95.68359375 41.953125 C-96.46734375 42.035625 -97.25109375 42.118125 -98.05859375 42.203125 C-98.66773081 35.01530774 -98.66773081 35.01530774 -96.18359375 31.703125 C-95.16022185 30.84742421 -94.11488423 30.01784232 -93.05859375 29.203125 C-92.31867188 28.5740625 -91.57875 27.945 -90.81640625 27.296875 C-77.528743 16.203125 -77.528743 16.203125 -71.05859375 16.203125 C-71.05859375 15.543125 -71.05859375 14.883125 -71.05859375 14.203125 C-65.08819523 12.30867163 -59.07886891 10.68690185 -52.99609375 9.203125 C-47.92322792 7.96316963 -42.95215691 6.60200119 -38.02734375 4.859375 C-35.89097959 4.14725361 -33.7481782 3.6023917 -31.55859375 3.078125 C-28.25510255 2.57113238 -28.25510255 2.57113238 -27.05859375 1.203125 C-18.09190343 0.06993957 -9.02425257 0.03143443 0 0 Z " fill="#2B8AE5" transform="translate(230.05859375,221.796875)"/>
<path d="M0 0 C6.6 0 13.2 0 20 0 C20 15.18 20 30.36 20 46 C17.36 46 14.72 46 12 46 C6.71172954 47.70300235 3.78087327 50.00307683 0 54 C-0.66 54 -1.32 54 -2 54 C-2.19242384 42.53608219 -1.59163043 31.13197529 -1 19.6875 C-0.90334859 17.77149935 -0.80699224 15.85548378 -0.7109375 13.93945312 C-0.47789936 9.29275306 -0.23882473 4.64642049 0 0 Z " fill="#F6FAFD" transform="translate(401,323)"/>
<path d="M0 0 C1.66417337 0.34556605 3.3301325 0.68309084 5 1 C5 1.33 5 1.66 5 2 C-0.61 1.67 -6.22 1.34 -12 1 C-12 0.34 -12 -0.32 -12 -1 C-12.93199219 -0.98839844 -13.86398437 -0.97679687 -14.82421875 -0.96484375 C-16.73654297 -0.95130859 -16.73654297 -0.95130859 -18.6875 -0.9375 C-19.92886719 -0.92589844 -21.17023438 -0.91429687 -22.44921875 -0.90234375 C-25.95849542 -0.92835321 -29.41453616 -1.18713613 -32.91015625 -1.4921875 C-41.19097361 -2.1623149 -49.44730375 -2.19696176 -57.75 -2.1875 C-58.56572479 -2.18756042 -59.38144958 -2.18762085 -60.22189331 -2.18768311 C-72.35638181 -2.17500632 -84.4491503 -1.84005981 -96.5625 -1.125 C-97.26427368 -1.08579437 -97.96604736 -1.04658875 -98.68908691 -1.00619507 C-107.57326792 -0.5599948 -107.57326792 -0.5599948 -116 2 C-117.92903132 2.2759478 -119.8689032 2.48449903 -121.8125 2.625 C-122.78832031 2.69976562 -123.76414063 2.77453125 -124.76953125 2.8515625 C-125.87361328 2.92503906 -125.87361328 2.92503906 -127 3 C-122.25294723 -0.16470185 -118.68228705 -0.10927475 -113 0 C-113 -0.66 -113 -1.32 -113 -2 C-77.75375612 -5.98214775 -34.49306539 -9.2788363 0 0 Z " fill="#B5D6F6" transform="translate(310,238)"/>
<path d="M0 0 C1.35710162 -0.00067605 2.71420311 -0.00164856 4.07130432 -0.00289917 C6.88731055 -0.0043585 9.70328467 -0.00227685 12.51928711 0.00244141 C16.11564617 0.00817641 19.71193118 0.00482484 23.30828762 -0.00113106 C26.09905044 -0.0047519 28.8897958 -0.00359174 31.68055916 -0.00100327 C33.64693882 -0.00002028 35.61331919 -0.00303506 37.57969666 -0.00613403 C38.7785701 -0.00298187 39.97744354 0.00017029 41.21264648 0.00341797 C42.26153549 0.00421356 43.3104245 0.00500916 44.39109802 0.00582886 C47.45896087 0.13621487 50.36373811 0.56553836 53.37890625 1.1328125 C53.37890625 1.4628125 53.37890625 1.7928125 53.37890625 2.1328125 C52.66275146 2.13059189 51.94659668 2.12837128 51.20874023 2.12608337 C44.38543788 2.10585953 37.56214013 2.09072752 30.73881531 2.08100033 C27.23276467 2.07583104 23.72673925 2.06884487 20.22070312 2.05737305 C-4.55198336 0.90185809 -4.55198336 0.90185809 -28.62109375 5.1328125 C-30.57188781 5.40276573 -32.53196095 5.61409547 -34.49609375 5.7578125 C-35.46289062 5.83257812 -36.4296875 5.90734375 -37.42578125 5.984375 C-38.51246094 6.05785156 -38.51246094 6.05785156 -39.62109375 6.1328125 C-36.91854716 4.33111477 -35.54249202 3.73917116 -32.49609375 3.0703125 C-28.86184912 2.54723505 -28.86184912 2.54723505 -27.62109375 1.1328125 C-18.46619469 -0.04290671 -9.21346759 -0.01468223 0 0 Z " fill="#7EB8EF" transform="translate(230.62109375,221.8671875)"/>
<path d="M0 0 C2.97 0 5.94 0 9 0 C9 0.66 9 1.32 9 2 C9.969375 1.979375 10.93875 1.95875 11.9375 1.9375 C15 2 15 2 16 3 C16.09304018 4.47354348 16.11746265 5.95150591 16.11352539 7.42797852 C16.11344986 8.36887833 16.11337433 9.30977814 16.11329651 10.27919006 C16.10813522 11.30209641 16.10297394 12.32500275 16.09765625 13.37890625 C16.0962413 14.42070541 16.09482635 15.46250458 16.09336853 16.53587341 C16.0877508 19.87811094 16.0751953 23.22028257 16.0625 26.5625 C16.05748728 28.82226466 16.05292398 31.08203037 16.04882812 33.34179688 C16.03777561 38.89455391 16.02102024 44.44727225 16 50 C15.67 50 15.34 50 15 50 C15 34.82 15 19.64 15 4 C13.02 4.33 11.04 4.66 9 5 C7.29399214 5.10884026 5.58442375 5.17410326 3.875 5.1875 C3.04742187 5.20167969 2.21984375 5.21585937 1.3671875 5.23046875 C-1.18416934 4.98206932 -2.80085002 4.28199296 -5 3 C-3.35 2.67 -1.7 2.34 0 2 C0 1.34 0 0.68 0 0 Z " fill="#509EE9" transform="translate(406,319)"/>
<path d="M0 0 C0.66 0.33 1.32 0.66 2 1 C1.02659668 1.64799561 0.05319336 2.29599121 -0.94970703 2.96362305 C-3.56265789 5.15497073 -4.44963425 6.56301939 -4.77294922 9.96411133 C-4.81361789 11.50291701 -4.82255262 13.04279193 -4.8046875 14.58203125 C-4.81839386 15.39621017 -4.83210022 16.2103891 -4.84622192 17.04924011 C-4.88347106 19.63755812 -4.87981098 22.22395238 -4.875 24.8125 C-4.89313054 26.57229555 -4.91393436 28.33206572 -4.9375 30.09179688 C-4.98930259 34.39485286 -5.00443416 38.69664934 -5 43 C-5.66 43 -6.32 43 -7 43 C-7.09881786 37.50078594 -7.17144379 32.00208765 -7.21972656 26.50219727 C-7.23985207 24.63101196 -7.26715549 22.75988961 -7.30175781 20.88891602 C-7.35023581 18.20052568 -7.37295872 15.51296612 -7.390625 12.82421875 C-7.41127014 11.98662521 -7.43191528 11.14903168 -7.45318604 10.28605652 C-7.45542818 4.49313841 -7.45542818 4.49313841 -5.16308594 2.01098633 C-3 1 -3 1 0 0 Z " fill="#63A8EC" transform="translate(421,257)"/>
<path d="M0 0 C0.33 0 0.66 0 1 0 C0.87966457 3.89213533 0.75534336 7.7841232 0.62768555 11.67602539 C0.56424794 13.63356265 0.50376182 15.59119486 0.44335938 17.54882812 C0.17300432 25.72186952 -0.29682668 33.85268022 -1 42 C1.64 39.69 4.28 37.38 7 35 C7.66 35.33 8.32 35.66 9 36 C7.95285076 37.32477959 6.88655331 38.63443746 5.8125 39.9375 C5.22082031 40.66839844 4.62914062 41.39929688 4.01953125 42.15234375 C1.65100261 44.31929548 0.10858604 44.49644935 -3 45 C-2.738305 39.39469872 -2.47164959 33.78966342 -2.20043945 28.18481445 C-2.10891283 26.27895467 -2.0187306 24.37302983 -1.92993164 22.46704102 C-1.80189632 19.72393785 -1.66899277 16.98110674 -1.53515625 14.23828125 C-1.49656998 13.38913651 -1.4579837 12.53999176 -1.41822815 11.66511536 C-1.21947469 7.68441194 -0.9439778 3.8900184 0 0 Z " fill="#8BBFF1" transform="translate(400,335)"/>
<path d="M0 0 C0 11.22 0 22.44 0 34 C-1.32 34.66 -2.64 35.32 -4 36 C-3.67 35.34 -3.34 34.68 -3 34 C-2.84391977 31.59439727 -2.74195542 29.21297228 -2.68359375 26.8046875 C-2.66281265 26.09724396 -2.64203156 25.38980042 -2.62062073 24.66091919 C-2.55518922 22.39904575 -2.49627026 20.13705538 -2.4375 17.875 C-2.39430867 16.34243578 -2.35069418 14.80988343 -2.30664062 13.27734375 C-2.19951445 9.51834927 -2.0982291 5.75923708 -2 2 C-3.32 2.33 -4.64 2.66 -6 3 C-3.375 0 -3.375 0 0 0 Z " fill="#6AADEC" transform="translate(407,266)"/>
<path d="M0 0 C9.27371498 0.31454706 18.40821117 0.85407144 27.5625 2.4375 C28.2939624 2.55971924 29.0254248 2.68193848 29.77905273 2.80786133 C31.53455646 3.1316145 33.27084378 3.55657221 35 4 C35.495 4.99 35.495 4.99 36 6 C28.41 5.34 20.82 4.68 13 4 C13 3.34 13 2.68 13 2 C8.71 1.67 4.42 1.34 0 1 C0 0.67 0 0.34 0 0 Z " fill="#8CBFF1" transform="translate(310,307)"/>
<path d="M0 0 C2.97 0 5.94 0 9 0 C9 0.66 9 1.32 9 2 C9.66 2.66 10.32 3.32 11 4 C8.55028376 5.22485812 6.85765539 5.16722808 4.125 5.1875 C2.82949219 5.20876953 2.82949219 5.20876953 1.5078125 5.23046875 C-1.1241288 4.98859252 -2.73980544 4.32983541 -5 3 C-3.35 2.67 -1.7 2.34 0 2 C0 1.34 0 0.68 0 0 Z " fill="#3D94E7" transform="translate(406,319)"/>
<path d="M0 0 C0.66 0.33 1.32 0.66 2 1 C-1.625 5.875 -1.625 5.875 -5 7 C-5.33 8.98 -5.66 10.96 -6 13 C-4.68 12.67 -3.36 12.34 -2 12 C-2.33 12.99 -2.66 13.98 -3 15 C-4.65 15.33 -6.3 15.66 -8 16 C-8.61461794 8.74750831 -8.61461794 8.74750831 -5.6875 5.1875 C-4.800625 4.465625 -3.91375 3.74375 -3 3 C-2.401875 2.401875 -1.80375 1.80375 -1.1875 1.1875 C-0.795625 0.795625 -0.40375 0.40375 0 0 Z " fill="#79B5EE" transform="translate(140,248)"/>
<path d="M0 0 C7.63813229 -0.45828794 14.58772172 1.29083667 22 3 C23.66528442 3.34017158 25.33142764 3.67634096 27 4 C27 4.33 27 4.66 27 5 C21.39 4.67 15.78 4.34 10 4 C10 3.34 10 2.68 10 2 C6.7 1.67 3.4 1.34 0 1 C0 0.67 0 0.34 0 0 Z " fill="#A2CBF3" transform="translate(288,235)"/>
<path d="M0 0 C0.66 0.33 1.32 0.66 2 1 C0.95285076 2.32477959 -0.11344669 3.63443746 -1.1875 4.9375 C-1.77917969 5.66839844 -2.37085938 6.39929688 -2.98046875 7.15234375 C-5.32505203 9.29738803 -6.88391498 9.66094412 -10 10 C-9.67 8.68 -9.34 7.36 -9 6 C-9 6.99 -9 7.98 -9 9 C-8.443125 8.443125 -7.88625 7.88625 -7.3125 7.3125 C-4.875 4.875 -2.4375 2.4375 0 0 Z " fill="#58A3EA" transform="translate(407,370)"/>
<path d="M0 0 C0 0.66 0 1.32 0 2 C-6.4150557 4.87940913 -11.97047248 6.5464821 -19 7 C-18.67 6.34 -18.34 5.68 -18 5 C-16.38041649 4.49388015 -14.75598403 3.99934887 -13.11328125 3.57421875 C-9.99707706 2.72748674 -6.96700668 1.64601609 -3.91796875 0.5859375 C-2 0 -2 0 0 0 Z " fill="#9BC8F2" transform="translate(358,322)"/>
<path d="M0 0 C0.99 0.33 1.98 0.66 3 1 C3.33 3.97 3.66 6.94 4 10 C0.16263678 9.04065919 -0.59660228 8.76390737 -3 6 C-1.68 6.33 -0.36 6.66 1 7 C0.67 4.69 0.34 2.38 0 0 Z " fill="#67ABEC" transform="translate(365,253)"/>
<path d="M0 0 C0.66 0.33 1.32 0.66 2 1 C-6.261959 7.70387244 -6.261959 7.70387244 -11 8 C-9.6875 6.5 -9.6875 6.5 -8 5 C-7.01 5 -6.02 5 -5 5 C-4.67 4.01 -4.34 3.02 -4 2 C-2.0625 0.75 -2.0625 0.75 0 0 Z " fill="#71B0ED" transform="translate(399,269)"/>
<path d="M0 0 C0 0.33 0 0.66 0 1 C-0.928125 1.28875 -1.85625 1.5775 -2.8125 1.875 C-6.09791667 2.8875 -6.09791667 2.8875 -9 5 C-11.1875 4.625 -11.1875 4.625 -13 4 C-8.48649253 0.47726246 -5.71658336 -0.45732667 0 0 Z " fill="#ABD1F4" transform="translate(254,134)"/>
<path d="M0 0 C0.66 0 1.32 0 2 0 C2 3.3 2 6.6 2 10 C0.02 10.99 0.02 10.99 -2 12 C-1.67 11.319375 -1.34 10.63875 -1 9.9375 C0.17307315 6.49159762 0.14180493 3.61602578 0 0 Z " fill="#509EE9" transform="translate(420,305)"/>
<path d="M0 0 C0.66 0.33 1.32 0.66 2 1 C-1.28804981 3.91227269 -3.59885603 5.49701212 -8 6 C-3.375 1.125 -3.375 1.125 0 0 Z " fill="#99C6F2" transform="translate(150,251)"/>
<path d="M0 0 C1.98 0.66 3.96 1.32 6 2 C6 2.66 6 3.32 6 4 C7.32 4.33 8.64 4.66 10 5 C9.01 5.495 9.01 5.495 8 6 C5.375 5.0625 5.375 5.0625 3 4 C3 3.34 3 2.68 3 2 C2.01 1.67 1.02 1.34 0 1 C0 0.67 0 0.34 0 0 Z " fill="#8DC0F1" transform="translate(85,261)"/>
<path d="M0 0 C4.7517398 0.43197635 6.92000054 1.32769295 10 5 C7.69 4.34 5.38 3.68 3 3 C3 2.34 3 1.68 3 1 C2.01 0.67 1.02 0.34 0 0 Z " fill="#A6CEF4" transform="translate(115,279)"/>
<path d="M0 0 C2.475 0.495 2.475 0.495 5 1 C5 1.66 5 2.32 5 3 C6.32 3.33 7.64 3.66 9 4 C6.50907189 5.24546405 5.58919267 4.7767578 3 4 C3 3.34 3 2.68 3 2 C2.01 1.67 1.02 1.34 0 1 C0 0.67 0 0.34 0 0 Z " fill="#A4CCF3" transform="translate(373,199)"/>
</svg>
